<mxfile host="app.diagrams.net" modified="2022-04-14T08:06:43.418Z" agent="5.0 (Macintosh; Intel Mac OS X 10_15_7) AppleWebKit/537.36 (KHTML, like Gecko) Chrome/100.0.4896.88 Safari/537.36" etag="ajUkaPgLkKV_Id_mxtaO" version="17.4.3" type="github" pages="2">
  <diagram id="wyapmIMRjITfCCN5EmBG" name="Page-1">
    <mxGraphModel dx="1184" dy="866" grid="1" gridSize="10" guides="1" tooltips="1" connect="1" arrows="1" fold="1" page="1" pageScale="1" pageWidth="1600" pageHeight="900" math="0" shadow="0">
      <root>
        <mxCell id="0" />
        <mxCell id="1" parent="0" />
        <mxCell id="AsWTd55u3r4LG-VSa0zU-24" value="Private subnet" style="points=[[0,0],[0.25,0],[0.5,0],[0.75,0],[1,0],[1,0.25],[1,0.5],[1,0.75],[1,1],[0.75,1],[0.5,1],[0.25,1],[0,1],[0,0.75],[0,0.5],[0,0.25]];outlineConnect=0;gradientColor=none;html=1;whiteSpace=wrap;fontSize=12;fontStyle=0;container=1;pointerEvents=0;collapsible=0;recursiveResize=0;shape=mxgraph.aws4.group;grIcon=mxgraph.aws4.group_security_group;grStroke=0;strokeColor=#147EBA;fillColor=#E6F2F8;verticalAlign=top;align=left;spacingLeft=30;fontColor=#147EBA;dashed=0;" vertex="1" parent="1">
          <mxGeometry x="370" y="160" width="120" height="280" as="geometry" />
        </mxCell>
        <mxCell id="AsWTd55u3r4LG-VSa0zU-1" value="&lt;b&gt;Google &lt;/b&gt;Cloud Platform" style="fillColor=#F6F6F6;strokeColor=none;shadow=0;gradientColor=none;fontSize=14;align=left;spacing=10;fontColor=#717171;9E9E9E;verticalAlign=top;spacingTop=-4;fontStyle=0;spacingLeft=40;html=1;" vertex="1" parent="1">
          <mxGeometry x="760" y="140" width="400" height="340" as="geometry" />
        </mxCell>
        <mxCell id="AsWTd55u3r4LG-VSa0zU-2" value="" style="shape=mxgraph.gcp2.google_cloud_platform;fillColor=#F6F6F6;strokeColor=none;shadow=0;gradientColor=none;" vertex="1" parent="AsWTd55u3r4LG-VSa0zU-1">
          <mxGeometry width="23" height="20" relative="1" as="geometry">
            <mxPoint x="20" y="10" as="offset" />
          </mxGeometry>
        </mxCell>
        <mxCell id="AsWTd55u3r4LG-VSa0zU-4" value="" style="shape=mxgraph.gcp2.doubleRect;strokeColor=#dddddd;shadow=1;strokeWidth=1;" vertex="1" parent="AsWTd55u3r4LG-VSa0zU-1">
          <mxGeometry x="126" y="225.71428571428572" width="148" height="75.77142857142857" as="geometry" />
        </mxCell>
        <mxCell id="AsWTd55u3r4LG-VSa0zU-5" value="&lt;font color=&quot;#000000&quot;&gt;Name&lt;/font&gt;&lt;br&gt;BigQuery&lt;hr&gt;&lt;font style=&quot;font-size: 11px&quot;&gt;Attribute Name&lt;/font&gt;" style="sketch=0;dashed=0;connectable=0;html=1;fillColor=#5184F3;strokeColor=none;shape=mxgraph.gcp2.bigquery;part=1;labelPosition=right;verticalLabelPosition=middle;align=left;verticalAlign=top;spacingLeft=5;fontColor=#999999;fontSize=12;spacingTop=-8;" vertex="1" parent="AsWTd55u3r4LG-VSa0zU-4">
          <mxGeometry width="44" height="39" relative="1" as="geometry">
            <mxPoint x="5" y="7" as="offset" />
          </mxGeometry>
        </mxCell>
        <mxCell id="AsWTd55u3r4LG-VSa0zU-19" value="Kubernetes cluster" style="sketch=0;points=[[0,0,0],[0.25,0,0],[0.5,0,0],[0.75,0,0],[1,0,0],[1,0.25,0],[1,0.5,0],[1,0.75,0],[1,1,0],[0.75,1,0],[0.5,1,0],[0.25,1,0],[0,1,0],[0,0.75,0],[0,0.5,0],[0,0.25,0]];rounded=1;absoluteArcSize=1;arcSize=2;html=1;strokeColor=none;gradientColor=none;shadow=0;dashed=0;fontSize=12;fontColor=#9E9E9E;align=left;verticalAlign=top;spacing=10;spacingTop=-4;fillColor=#FCE4EC;" vertex="1" parent="AsWTd55u3r4LG-VSa0zU-1">
          <mxGeometry x="75" y="48.57" width="250" height="161.43" as="geometry" />
        </mxCell>
        <mxCell id="AsWTd55u3r4LG-VSa0zU-20" value="Airflow Dag Pod" style="sketch=0;points=[[0,0,0],[0.25,0,0],[0.5,0,0],[0.75,0,0],[1,0,0],[1,0.25,0],[1,0.5,0],[1,0.75,0],[1,1,0],[0.75,1,0],[0.5,1,0],[0.25,1,0],[0,1,0],[0,0.75,0],[0,0.5,0],[0,0.25,0]];rounded=1;absoluteArcSize=1;arcSize=2;html=1;strokeColor=none;gradientColor=none;shadow=0;dashed=0;fontSize=12;fontColor=#9E9E9E;align=left;verticalAlign=top;spacing=10;spacingTop=-4;fillColor=#E8F5E9;" vertex="1" parent="AsWTd55u3r4LG-VSa0zU-19">
          <mxGeometry width="210" height="100" relative="1" as="geometry">
            <mxPoint x="10" y="30" as="offset" />
          </mxGeometry>
        </mxCell>
        <mxCell id="AsWTd55u3r4LG-VSa0zU-21" value="" style="sketch=0;html=1;dashed=0;whitespace=wrap;fillColor=#2875E2;strokeColor=#ffffff;points=[[0.005,0.63,0],[0.1,0.2,0],[0.9,0.2,0],[0.5,0,0],[0.995,0.63,0],[0.72,0.99,0],[0.5,1,0],[0.28,0.99,0]];shape=mxgraph.kubernetes.icon;prIcon=pod" vertex="1" parent="AsWTd55u3r4LG-VSa0zU-19">
          <mxGeometry x="45" y="64.572" width="50" height="51.6576" as="geometry" />
        </mxCell>
        <mxCell id="AsWTd55u3r4LG-VSa0zU-22" value="" style="sketch=0;html=1;dashed=0;whitespace=wrap;fillColor=#2875E2;strokeColor=#ffffff;points=[[0.005,0.63,0],[0.1,0.2,0],[0.9,0.2,0],[0.5,0,0],[0.995,0.63,0],[0.72,0.99,0],[0.5,1,0],[0.28,0.99,0]];shape=mxgraph.kubernetes.icon;prIcon=pod" vertex="1" parent="AsWTd55u3r4LG-VSa0zU-19">
          <mxGeometry x="145" y="66.47117647058825" width="50" height="49.75842352941177" as="geometry" />
        </mxCell>
        <mxCell id="AsWTd55u3r4LG-VSa0zU-38" value="Task1-1. Bigquery 조회" style="text;html=1;strokeColor=none;fillColor=none;align=center;verticalAlign=middle;whiteSpace=wrap;rounded=0;" vertex="1" parent="AsWTd55u3r4LG-VSa0zU-19">
          <mxGeometry x="-5" y="154.8919411764706" width="126" height="28.487647058823537" as="geometry" />
        </mxCell>
        <mxCell id="AsWTd55u3r4LG-VSa0zU-40" value="Task1" style="text;html=1;strokeColor=none;fillColor=none;align=center;verticalAlign=middle;whiteSpace=wrap;rounded=0;" vertex="1" parent="AsWTd55u3r4LG-VSa0zU-19">
          <mxGeometry x="6" y="52.63431932773111" width="126" height="21.432206470588238" as="geometry" />
        </mxCell>
        <mxCell id="AsWTd55u3r4LG-VSa0zU-42" value="" style="html=1;shadow=0;dashed=0;align=center;verticalAlign=middle;shape=mxgraph.arrows2.arrow;dy=0.52;dx=26;notch=0;" vertex="1" parent="AsWTd55u3r4LG-VSa0zU-19">
          <mxGeometry x="97" y="64.572" width="45" height="58.11480000000002" as="geometry" />
        </mxCell>
        <mxCell id="AsWTd55u3r4LG-VSa0zU-37" value="" style="edgeStyle=orthogonalEdgeStyle;html=1;endArrow=block;elbow=vertical;startArrow=none;endFill=1;strokeColor=#545B64;rounded=0;exitX=0.52;exitY=0.817;exitDx=0;exitDy=0;exitPerimeter=0;entryX=0.5;entryY=0;entryDx=0;entryDy=0;dashed=1;" edge="1" parent="AsWTd55u3r4LG-VSa0zU-1" source="AsWTd55u3r4LG-VSa0zU-21" target="AsWTd55u3r4LG-VSa0zU-4">
          <mxGeometry width="100" relative="1" as="geometry">
            <mxPoint x="-190" y="290" as="sourcePoint" />
            <mxPoint x="-90" y="290" as="targetPoint" />
          </mxGeometry>
        </mxCell>
        <mxCell id="AsWTd55u3r4LG-VSa0zU-23" value="VPC" style="points=[[0,0],[0.25,0],[0.5,0],[0.75,0],[1,0],[1,0.25],[1,0.5],[1,0.75],[1,1],[0.75,1],[0.5,1],[0.25,1],[0,1],[0,0.75],[0,0.5],[0,0.25]];outlineConnect=0;gradientColor=none;html=1;whiteSpace=wrap;fontSize=12;fontStyle=0;container=0;pointerEvents=0;collapsible=0;recursiveResize=0;shape=mxgraph.aws4.group;grIcon=mxgraph.aws4.group_vpc;strokeColor=#248814;fillColor=none;verticalAlign=top;align=left;spacingLeft=30;fontColor=#AAB7B8;dashed=0;" vertex="1" parent="1">
          <mxGeometry x="320" y="120" width="280" height="360" as="geometry" />
        </mxCell>
        <mxCell id="AsWTd55u3r4LG-VSa0zU-30" value="Region" style="points=[[0,0],[0.25,0],[0.5,0],[0.75,0],[1,0],[1,0.25],[1,0.5],[1,0.75],[1,1],[0.75,1],[0.5,1],[0.25,1],[0,1],[0,0.75],[0,0.5],[0,0.25]];outlineConnect=0;gradientColor=none;html=1;whiteSpace=wrap;fontSize=12;fontStyle=0;container=0;pointerEvents=0;collapsible=0;recursiveResize=0;shape=mxgraph.aws4.group;grIcon=mxgraph.aws4.group_region;strokeColor=#147EBA;fillColor=none;verticalAlign=top;align=left;spacingLeft=30;fontColor=#147EBA;dashed=1;" vertex="1" parent="1">
          <mxGeometry x="280" y="80" width="360" height="480" as="geometry" />
        </mxCell>
        <mxCell id="AsWTd55u3r4LG-VSa0zU-34" value="" style="edgeStyle=orthogonalEdgeStyle;html=1;endArrow=none;elbow=vertical;startArrow=block;startFill=1;strokeColor=#545B64;rounded=0;entryX=0.005;entryY=0.63;entryDx=0;entryDy=0;entryPerimeter=0;dashed=1;" edge="1" parent="1" source="AsWTd55u3r4LG-VSa0zU-33" target="AsWTd55u3r4LG-VSa0zU-21">
          <mxGeometry width="100" relative="1" as="geometry">
            <mxPoint x="550" y="440" as="sourcePoint" />
            <mxPoint x="650" y="440" as="targetPoint" />
            <Array as="points">
              <mxPoint x="740" y="499" />
              <mxPoint x="740" y="286" />
            </Array>
          </mxGeometry>
        </mxCell>
        <mxCell id="AsWTd55u3r4LG-VSa0zU-29" value="" style="sketch=0;outlineConnect=0;fontColor=#232F3E;gradientColor=none;fillColor=#2E27AD;strokeColor=none;dashed=0;verticalLabelPosition=bottom;verticalAlign=top;align=center;html=1;fontSize=12;fontStyle=0;aspect=fixed;pointerEvents=1;shape=mxgraph.aws4.rds_mysql_instance;" vertex="1" parent="1">
          <mxGeometry x="391" y="280" width="78" height="78" as="geometry" />
        </mxCell>
        <mxCell id="AsWTd55u3r4LG-VSa0zU-32" value="" style="sketch=0;points=[[0,0,0],[0.25,0,0],[0.5,0,0],[0.75,0,0],[1,0,0],[0,1,0],[0.25,1,0],[0.5,1,0],[0.75,1,0],[1,1,0],[0,0.25,0],[0,0.5,0],[0,0.75,0],[1,0.25,0],[1,0.5,0],[1,0.75,0]];outlineConnect=0;fontColor=#232F3E;gradientColor=#945DF2;gradientDirection=north;fillColor=#5A30B5;strokeColor=#ffffff;dashed=0;verticalLabelPosition=bottom;verticalAlign=top;align=center;html=1;fontSize=12;fontStyle=0;aspect=fixed;shape=mxgraph.aws4.resourceIcon;resIcon=mxgraph.aws4.glue;" vertex="1" parent="1">
          <mxGeometry x="552" y="280" width="78" height="78" as="geometry" />
        </mxCell>
        <mxCell id="AsWTd55u3r4LG-VSa0zU-33" value="" style="sketch=0;points=[[0,0,0],[0.25,0,0],[0.5,0,0],[0.75,0,0],[1,0,0],[0,1,0],[0.25,1,0],[0.5,1,0],[0.75,1,0],[1,1,0],[0,0.25,0],[0,0.5,0],[0,0.75,0],[1,0.25,0],[1,0.5,0],[1,0.75,0]];outlineConnect=0;fontColor=#232F3E;gradientColor=#60A337;gradientDirection=north;fillColor=#277116;strokeColor=#ffffff;dashed=0;verticalLabelPosition=bottom;verticalAlign=top;align=center;html=1;fontSize=12;fontStyle=0;aspect=fixed;shape=mxgraph.aws4.resourceIcon;resIcon=mxgraph.aws4.s3;" vertex="1" parent="1">
          <mxGeometry x="460" y="460" width="78" height="78" as="geometry" />
        </mxCell>
        <mxCell id="AsWTd55u3r4LG-VSa0zU-39" value="Task1-2. S3저장" style="text;html=1;strokeColor=none;fillColor=none;align=center;verticalAlign=middle;whiteSpace=wrap;rounded=0;" vertex="1" parent="1">
          <mxGeometry x="674" y="264.43" width="126" height="22.57" as="geometry" />
        </mxCell>
        <mxCell id="AsWTd55u3r4LG-VSa0zU-41" value="Task2" style="text;html=1;strokeColor=none;fillColor=none;align=center;verticalAlign=middle;whiteSpace=wrap;rounded=0;" vertex="1" parent="1">
          <mxGeometry x="942" y="243" width="126" height="22.57" as="geometry" />
        </mxCell>
        <mxCell id="AsWTd55u3r4LG-VSa0zU-43" value="" style="edgeStyle=orthogonalEdgeStyle;html=1;endArrow=block;elbow=vertical;startArrow=none;endFill=1;strokeColor=#b85450;rounded=0;exitX=0.5;exitY=1;exitDx=0;exitDy=0;exitPerimeter=0;entryX=1;entryY=0.5;entryDx=0;entryDy=0;dashed=1;fillColor=#f8cecc;entryPerimeter=0;" edge="1" parent="1" source="AsWTd55u3r4LG-VSa0zU-22" target="AsWTd55u3r4LG-VSa0zU-32">
          <mxGeometry width="100" relative="1" as="geometry">
            <mxPoint x="500" y="450" as="sourcePoint" />
            <mxPoint x="600" y="450" as="targetPoint" />
            <Array as="points">
              <mxPoint x="1005" y="450" />
              <mxPoint x="700" y="450" />
              <mxPoint x="700" y="320" />
            </Array>
          </mxGeometry>
        </mxCell>
        <mxCell id="AsWTd55u3r4LG-VSa0zU-44" value="&lt;font color=&quot;#ff3333&quot;&gt;Task2-1. Glue Job 실행&lt;/font&gt;" style="text;html=1;strokeColor=none;fillColor=none;align=center;verticalAlign=middle;whiteSpace=wrap;rounded=0;" vertex="1" parent="1">
          <mxGeometry x="823" y="450.57142857142856" width="126" height="30" as="geometry" />
        </mxCell>
        <mxCell id="AsWTd55u3r4LG-VSa0zU-50" value="" style="edgeStyle=orthogonalEdgeStyle;html=1;endArrow=block;elbow=vertical;startArrow=none;endFill=1;strokeColor=#b85450;rounded=0;dashed=1;fontColor=#FF3333;exitX=0.5;exitY=1;exitDx=0;exitDy=0;exitPerimeter=0;fillColor=#f8cecc;" edge="1" parent="1" source="AsWTd55u3r4LG-VSa0zU-32" target="AsWTd55u3r4LG-VSa0zU-33">
          <mxGeometry width="100" relative="1" as="geometry">
            <mxPoint x="490" y="440" as="sourcePoint" />
            <mxPoint x="590" y="440" as="targetPoint" />
          </mxGeometry>
        </mxCell>
        <mxCell id="AsWTd55u3r4LG-VSa0zU-51" value="&lt;font color=&quot;#ff3333&quot;&gt;Task2-2. S3 조회&lt;/font&gt;" style="text;html=1;strokeColor=none;fillColor=none;align=center;verticalAlign=middle;whiteSpace=wrap;rounded=0;" vertex="1" parent="1">
          <mxGeometry x="516" y="410.0014285714285" width="126" height="30" as="geometry" />
        </mxCell>
        <mxCell id="AsWTd55u3r4LG-VSa0zU-52" value="" style="edgeStyle=orthogonalEdgeStyle;html=1;endArrow=block;elbow=vertical;startArrow=none;endFill=1;strokeColor=#b85450;rounded=0;dashed=1;fontColor=#FF3333;exitX=0;exitY=0.5;exitDx=0;exitDy=0;exitPerimeter=0;fillColor=#f8cecc;entryX=0.974;entryY=0.506;entryDx=0;entryDy=0;entryPerimeter=0;" edge="1" parent="1" source="AsWTd55u3r4LG-VSa0zU-32" target="AsWTd55u3r4LG-VSa0zU-29">
          <mxGeometry width="100" relative="1" as="geometry">
            <mxPoint x="601" y="368" as="sourcePoint" />
            <mxPoint x="509" y="470" as="targetPoint" />
          </mxGeometry>
        </mxCell>
        <mxCell id="AsWTd55u3r4LG-VSa0zU-53" value="&lt;font color=&quot;#ff3333&quot;&gt;Task2-3. &lt;br&gt;Mysql Upsert&lt;/font&gt;" style="text;html=1;strokeColor=none;fillColor=none;align=center;verticalAlign=middle;whiteSpace=wrap;rounded=0;" vertex="1" parent="1">
          <mxGeometry x="449" y="286.0014285714285" width="126" height="30" as="geometry" />
        </mxCell>
      </root>
    </mxGraphModel>
  </diagram>
  <diagram id="Zi0ljALteEcxIvEyxlHR" name="Page-2">
    <mxGraphModel dx="1184" dy="866" grid="1" gridSize="10" guides="1" tooltips="1" connect="1" arrows="1" fold="1" page="1" pageScale="1" pageWidth="1600" pageHeight="900" math="0" shadow="0">
      <root>
        <mxCell id="0" />
        <mxCell id="1" parent="0" />
        <mxCell id="IPURAA4XhQIB63TGaam6-1" value="&lt;b&gt;Google &lt;/b&gt;Cloud Platform" style="fillColor=#F6F6F6;strokeColor=none;shadow=0;gradientColor=none;fontSize=14;align=left;spacing=10;fontColor=#717171;9E9E9E;verticalAlign=top;spacingTop=-4;fontStyle=0;spacingLeft=40;html=1;" vertex="1" parent="1">
          <mxGeometry x="732" y="140" width="310" height="340" as="geometry" />
        </mxCell>
        <mxCell id="IPURAA4XhQIB63TGaam6-2" value="" style="shape=mxgraph.gcp2.google_cloud_platform;fillColor=#F6F6F6;strokeColor=none;shadow=0;gradientColor=none;" vertex="1" parent="IPURAA4XhQIB63TGaam6-1">
          <mxGeometry width="23" height="20" relative="1" as="geometry">
            <mxPoint x="20" y="10" as="offset" />
          </mxGeometry>
        </mxCell>
        <mxCell id="IPURAA4XhQIB63TGaam6-3" value="" style="shape=mxgraph.gcp2.doubleRect;strokeColor=#dddddd;shadow=1;strokeWidth=1;" vertex="1" parent="IPURAA4XhQIB63TGaam6-1">
          <mxGeometry x="97.65" y="225.71" width="162.35" height="75.77" as="geometry" />
        </mxCell>
        <mxCell id="IPURAA4XhQIB63TGaam6-4" value="&lt;font color=&quot;#000000&quot;&gt;Name&lt;/font&gt;&lt;br&gt;BigQuery&lt;hr&gt;&lt;font style=&quot;font-size: 11px&quot;&gt;Attribute Name&lt;/font&gt;" style="sketch=0;dashed=0;connectable=0;html=1;fillColor=#5184F3;strokeColor=none;shape=mxgraph.gcp2.bigquery;part=1;labelPosition=right;verticalLabelPosition=middle;align=left;verticalAlign=top;spacingLeft=5;fontColor=#999999;fontSize=12;spacingTop=-8;" vertex="1" parent="IPURAA4XhQIB63TGaam6-3">
          <mxGeometry width="44" height="39" relative="1" as="geometry">
            <mxPoint x="5" y="7" as="offset" />
          </mxGeometry>
        </mxCell>
        <mxCell id="IPURAA4XhQIB63TGaam6-5" value="Kubernetes cluster" style="sketch=0;points=[[0,0,0],[0.25,0,0],[0.5,0,0],[0.75,0,0],[1,0,0],[1,0.25,0],[1,0.5,0],[1,0.75,0],[1,1,0],[0.75,1,0],[0.5,1,0],[0.25,1,0],[0,1,0],[0,0.75,0],[0,0.5,0],[0,0.25,0]];rounded=1;absoluteArcSize=1;arcSize=2;html=1;strokeColor=none;gradientColor=none;shadow=0;dashed=0;fontSize=12;fontColor=#9E9E9E;align=left;verticalAlign=top;spacing=10;spacingTop=-4;fillColor=#FCE4EC;" vertex="1" parent="IPURAA4XhQIB63TGaam6-1">
          <mxGeometry x="58.13" y="48.57" width="171.88" height="161.43" as="geometry" />
        </mxCell>
        <mxCell id="IPURAA4XhQIB63TGaam6-6" value="Airflow Dag Pod" style="sketch=0;points=[[0,0,0],[0.25,0,0],[0.5,0,0],[0.75,0,0],[1,0,0],[1,0.25,0],[1,0.5,0],[1,0.75,0],[1,1,0],[0.75,1,0],[0.5,1,0],[0.25,1,0],[0,1,0],[0,0.75,0],[0,0.5,0],[0,0.25,0]];rounded=1;absoluteArcSize=1;arcSize=2;html=1;strokeColor=none;gradientColor=none;shadow=0;dashed=0;fontSize=12;fontColor=#9E9E9E;align=left;verticalAlign=top;spacing=10;spacingTop=-4;fillColor=#E8F5E9;" vertex="1" parent="IPURAA4XhQIB63TGaam6-5">
          <mxGeometry width="150" height="100" relative="1" as="geometry">
            <mxPoint x="10" y="30" as="offset" />
          </mxGeometry>
        </mxCell>
        <mxCell id="IPURAA4XhQIB63TGaam6-7" value="" style="sketch=0;html=1;dashed=0;whitespace=wrap;fillColor=#2875E2;strokeColor=#ffffff;points=[[0.005,0.63,0],[0.1,0.2,0],[0.9,0.2,0],[0.5,0,0],[0.995,0.63,0],[0.72,0.99,0],[0.5,1,0],[0.28,0.99,0]];shape=mxgraph.kubernetes.icon;prIcon=pod" vertex="1" parent="IPURAA4XhQIB63TGaam6-5">
          <mxGeometry x="30.938399999999994" y="64.572" width="34.376" height="51.6576" as="geometry" />
        </mxCell>
        <mxCell id="IPURAA4XhQIB63TGaam6-9" value="Task1-1. Bigquery 조회" style="text;html=1;strokeColor=none;fillColor=none;align=center;verticalAlign=middle;whiteSpace=wrap;rounded=0;" vertex="1" parent="IPURAA4XhQIB63TGaam6-5">
          <mxGeometry x="56.5624" y="113.8919411764706" width="86.62751999999999" height="28.487647058823537" as="geometry" />
        </mxCell>
        <mxCell id="IPURAA4XhQIB63TGaam6-10" value="Task1" style="text;html=1;strokeColor=none;fillColor=none;align=center;verticalAlign=middle;whiteSpace=wrap;rounded=0;" vertex="1" parent="IPURAA4XhQIB63TGaam6-5">
          <mxGeometry x="4.125119999999999" y="52.63431932773111" width="86.62751999999999" height="21.432206470588238" as="geometry" />
        </mxCell>
        <mxCell id="IPURAA4XhQIB63TGaam6-12" value="" style="edgeStyle=orthogonalEdgeStyle;html=1;endArrow=block;elbow=vertical;startArrow=none;endFill=1;strokeColor=#545B64;rounded=0;exitX=0.52;exitY=0.817;exitDx=0;exitDy=0;exitPerimeter=0;entryX=0.5;entryY=0;entryDx=0;entryDy=0;dashed=1;" edge="1" parent="IPURAA4XhQIB63TGaam6-1" source="IPURAA4XhQIB63TGaam6-7" target="IPURAA4XhQIB63TGaam6-3">
          <mxGeometry width="100" relative="1" as="geometry">
            <mxPoint x="-147.25" y="290" as="sourcePoint" />
            <mxPoint x="-69.75" y="290" as="targetPoint" />
          </mxGeometry>
        </mxCell>
        <mxCell id="Vfg2UdNHo7hhJb0RRYha-1" value="Region" style="points=[[0,0],[0.25,0],[0.5,0],[0.75,0],[1,0],[1,0.25],[1,0.5],[1,0.75],[1,1],[0.75,1],[0.5,1],[0.25,1],[0,1],[0,0.75],[0,0.5],[0,0.25]];outlineConnect=0;gradientColor=none;html=1;whiteSpace=wrap;fontSize=12;fontStyle=0;container=0;pointerEvents=0;collapsible=0;recursiveResize=0;shape=mxgraph.aws4.group;grIcon=mxgraph.aws4.group_region;strokeColor=#147EBA;fillColor=none;verticalAlign=top;align=left;spacingLeft=30;fontColor=#147EBA;dashed=1;" vertex="1" parent="1">
          <mxGeometry x="280" y="80" width="320" height="400" as="geometry" />
        </mxCell>
        <mxCell id="yFIsRXN6OCJjYNfZ33wF-1" value="VPC" style="points=[[0,0],[0.25,0],[0.5,0],[0.75,0],[1,0],[1,0.25],[1,0.5],[1,0.75],[1,1],[0.75,1],[0.5,1],[0.25,1],[0,1],[0,0.75],[0,0.5],[0,0.25]];outlineConnect=0;gradientColor=none;html=1;whiteSpace=wrap;fontSize=12;fontStyle=0;container=0;pointerEvents=0;collapsible=0;recursiveResize=0;shape=mxgraph.aws4.group;grIcon=mxgraph.aws4.group_vpc;strokeColor=#248814;fillColor=none;verticalAlign=top;align=left;spacingLeft=30;fontColor=#AAB7B8;dashed=0;" vertex="1" parent="1">
          <mxGeometry x="320" y="120" width="240" height="320" as="geometry" />
        </mxCell>
        <mxCell id="yFIsRXN6OCJjYNfZ33wF-2" style="edgeStyle=orthogonalEdgeStyle;rounded=0;orthogonalLoop=1;jettySize=auto;html=1;exitX=0.5;exitY=1;exitDx=0;exitDy=0;dashed=1;fontColor=#FF3333;" edge="1" parent="1" source="Vfg2UdNHo7hhJb0RRYha-1" target="Vfg2UdNHo7hhJb0RRYha-1">
          <mxGeometry relative="1" as="geometry" />
        </mxCell>
        <mxCell id="Khgxdu5be9ec-DkPU-b0-2" value="Public subnet" style="points=[[0,0],[0.25,0],[0.5,0],[0.75,0],[1,0],[1,0.25],[1,0.5],[1,0.75],[1,1],[0.75,1],[0.5,1],[0.25,1],[0,1],[0,0.75],[0,0.5],[0,0.25]];outlineConnect=0;gradientColor=none;html=1;whiteSpace=wrap;fontSize=12;fontStyle=0;container=1;pointerEvents=0;collapsible=0;recursiveResize=0;shape=mxgraph.aws4.group;grIcon=mxgraph.aws4.group_security_group;grStroke=0;strokeColor=#248814;fillColor=#E9F3E6;verticalAlign=top;align=left;spacingLeft=30;fontColor=#248814;dashed=0;" vertex="1" parent="1">
          <mxGeometry x="360" y="160" width="160" height="240" as="geometry" />
        </mxCell>
        <mxCell id="kIqirFXtomnCAVekcWiK-1" value="" style="sketch=0;outlineConnect=0;fontColor=#232F3E;gradientColor=none;fillColor=#2E27AD;strokeColor=none;dashed=0;verticalLabelPosition=bottom;verticalAlign=top;align=center;html=1;fontSize=12;fontStyle=0;aspect=fixed;pointerEvents=1;shape=mxgraph.aws4.rds_mysql_instance;" vertex="1" parent="Khgxdu5be9ec-DkPU-b0-2">
          <mxGeometry x="41" y="81" width="78" height="78" as="geometry" />
        </mxCell>
        <mxCell id="kIqirFXtomnCAVekcWiK-2" value="" style="edgeStyle=orthogonalEdgeStyle;html=1;endArrow=block;elbow=vertical;startArrow=none;endFill=1;strokeColor=#545B64;rounded=0;dashed=1;fontColor=#FF3333;exitX=0.005;exitY=0.63;exitDx=0;exitDy=0;exitPerimeter=0;" edge="1" parent="1" source="IPURAA4XhQIB63TGaam6-7" target="kIqirFXtomnCAVekcWiK-1">
          <mxGeometry width="100" relative="1" as="geometry">
            <mxPoint x="550" y="440" as="sourcePoint" />
            <mxPoint x="650" y="440" as="targetPoint" />
          </mxGeometry>
        </mxCell>
        <mxCell id="kIqirFXtomnCAVekcWiK-3" value="Task1-2. JBCD를 이용한 Upsert" style="text;html=1;strokeColor=none;fillColor=none;align=center;verticalAlign=middle;whiteSpace=wrap;rounded=0;" vertex="1" parent="1">
          <mxGeometry x="627.6924" y="294.4619411764706" width="86.62751999999999" height="28.487647058823537" as="geometry" />
        </mxCell>
      </root>
    </mxGraphModel>
  </diagram>
</mxfile>
